Coordinates
version=1
nRows=5
nColumns=40
inDegrees=yes

Units are S.I. units (second, meters, Newtons, ...)
If the header above contains a line with 'inDegrees', this indicates whether rotational values are in degrees (yes) or radians (no).

endheader
time	pelvis_tilt	pelvis_list	pelvis_rotation	pelvis_tx	pelvis_ty	pelvis_tz	hip_flexion_r	hip_adduction_r	hip_rotation_r	knee_angle_r	knee_angle_r_beta	ankle_angle_r	subtalar_angle_r	mtp_angle_r	hip_flexion_l	hip_adduction_l	hip_rotation_l	knee_angle_l	knee_angle_l_beta	ankle_angle_l	subtalar_angle_l	mtp_angle_l	lumbar_extension	lumbar_bending	lumbar_rotation	arm_flex_r	arm_add_r	arm_rot_r	elbow_flex_r	pro_sup_r	wrist_flex_r	wrist_dev_r	arm_flex_l	arm_add_l	arm_rot_l	elbow_flex_l	pro_sup_l	wrist_flex_l	wrist_dev_l
      5.40500000	    -41.50630300	      8.86401405	      3.68660825	     -0.44366511	      0.71696267	     -0.91765883	    103.29762581	    -18.66829578	      8.59258955	     86.07117570	      1.50222541	     29.18352596	      0.00000000	      0.00000000	     97.36463885	     -4.35879620	     -5.44942040	     84.34428902	      1.47208555	     31.52516211	      0.00000000	      0.00000000	    -28.91611128	     -3.10777563	    -11.23264907	    -12.65530985	    -62.40604191	     53.51454102	    111.89472877	     87.92593760	      0.00000000	      0.00000000	    -10.34563271	    -60.32074964	     56.90495126	    100.96853631	     88.12046734	      0.00000000	      0.00000000
      5.41000000	    -41.65982384	      8.96942414	      3.65576686	     -0.44435795	      0.71686480	     -0.91756574	    103.50998699	    -18.54047615	      8.74461327	     85.99000336	      1.50080868	     29.04884951	      0.00000000	      0.00000000	     97.51787411	     -4.41370250	     -5.54471024	     84.28017160	      1.47096649	     31.44307990	      0.00000000	      0.00000000	    -28.80206798	     -3.26012702	    -11.17239804	    -12.92603029	    -62.38925705	     53.23096769	    111.91316899	     87.89865206	      0.00000000	      0.00000000	    -10.18221405	    -60.41282444	     57.09391660	    101.05772281	     88.15201650	      0.00000000	      0.00000000
      5.41500000	    -41.49611435	      8.91517471	      3.49230334	     -0.44423540	      0.71744870	     -0.91693921	    103.24060498	    -18.38254266	      8.60439325	     85.91670993	      1.49952947	     29.11757324	      0.00000000	      0.00000000	     97.30237600	     -4.59501241	     -5.48338007	     84.23321343	      1.47014691	     31.53568000	      0.00000000	      0.00000000	    -29.04673347	     -3.28399217	    -11.00278708	    -12.98003039	    -62.30352297	     53.12370419	    111.80948765	     87.83224904	      0.00000000	      0.00000000	    -10.16898069	    -60.37640973	     57.00296532	    100.93128234	     88.17397546	      0.00000000	      0.00000000
      5.42000000	    -41.35117304	      9.04043075	      3.49641704	     -0.44418483	      0.71795109	     -0.91694217	    103.11755212	    -18.39030264	      8.74987113	     85.89845788	      1.49921091	     29.10872648	      0.00000000	      0.00000000	     97.09473290	     -4.56736172	     -5.62435088	     84.18978208	      1.46938889	     31.50854939	      0.00000000	      0.00000000	    -29.24404196	     -3.40036433	    -11.03746982	    -12.79709719	    -62.31081948	     53.31515925	    111.83116374	     87.91983626	      0.00000000	      0.00000000	     -9.71628320	    -60.48361239	     57.52196793	    101.01021529	     88.13672122	      0.00000000	      0.00000000
      5.42500000	    -41.34529673	      8.92273064	      3.39899837	     -0.44450076	      0.71821882	     -0.91654413	    103.03441588	    -18.25431796	      8.60791370	     85.83421688	      1.49808970	     29.02796846	      0.00000000	      0.00000000	     97.11375938	     -4.68900935	     -5.48253330	     84.15170578	      1.46872434	     31.38360347	      0.00000000	      0.00000000	    -29.29456019	     -3.33835559	    -10.90277743	    -12.86705029	    -62.33865603	     53.17703603	    111.83892304	     87.87217677	      0.00000000	      0.00000000	     -9.80031467	    -60.48163395	     57.39459954	    101.03416050	     88.19167895	      0.00000000	      0.00000000
